<mxfile host="app.diagrams.net" modified="2023-03-30T23:42:40.478Z" agent="Mozilla/5.0 (Windows NT 10.0; Win64; x64) AppleWebKit/537.36 (KHTML, like Gecko) Chrome/111.0.0.0 Safari/537.36 Edg/111.0.1661.54" etag="1R545QgCdjwJYb4Vf2xg" version="21.1.2" type="github">
  <diagram name="Página-1" id="rkHG6nmuOjkpt8-TUzvK">
    <mxGraphModel dx="1034" dy="477" grid="1" gridSize="10" guides="1" tooltips="1" connect="1" arrows="1" fold="1" page="1" pageScale="1" pageWidth="827" pageHeight="1169" math="0" shadow="0">
      <root>
        <mxCell id="0" />
        <mxCell id="1" parent="0" />
        <mxCell id="QimY8xbkl2on-bAjsN7t-3" value="Financeiro" style="text;html=1;strokeColor=none;fillColor=none;align=center;verticalAlign=middle;whiteSpace=wrap;rounded=0;fontSize=40;" parent="1" vertex="1">
          <mxGeometry x="20" y="80" width="330" height="30" as="geometry" />
        </mxCell>
        <mxCell id="IfJ1QCMbeDYxTQooLl67-13" value="Diagrama de casos de uso gerenciar contas a pagar" style="shape=rect;html=1;verticalAlign=top;fontStyle=1;whiteSpace=wrap;align=center;fillColor=#f5f5f5;fontColor=#333333;strokeColor=#666666;shadow=1;" parent="1" vertex="1">
          <mxGeometry x="163" y="240" width="577" height="530" as="geometry" />
        </mxCell>
        <mxCell id="IfJ1QCMbeDYxTQooLl67-19" value="Incluir Produto&lt;br&gt;ou serviço" style="ellipse;whiteSpace=wrap;html=1;shadow=1;" parent="1" vertex="1">
          <mxGeometry x="370" y="310" width="130" height="60" as="geometry" />
        </mxCell>
        <mxCell id="IfJ1QCMbeDYxTQooLl67-20" value="Financeiro" style="shape=umlActor;html=1;verticalLabelPosition=bottom;verticalAlign=top;align=center;" parent="1" vertex="1">
          <mxGeometry x="20" y="477.5" width="30" height="55" as="geometry" />
        </mxCell>
        <mxCell id="IfJ1QCMbeDYxTQooLl67-21" value="" style="edgeStyle=none;html=1;endArrow=block;endFill=0;endSize=12;verticalAlign=bottom;rounded=0;entryX=0;entryY=0.5;entryDx=0;entryDy=0;" parent="1" source="IfJ1QCMbeDYxTQooLl67-29" target="IfJ1QCMbeDYxTQooLl67-19" edge="1">
          <mxGeometry width="160" relative="1" as="geometry">
            <mxPoint x="320" y="390" as="sourcePoint" />
            <mxPoint x="290" y="405" as="targetPoint" />
          </mxGeometry>
        </mxCell>
        <mxCell id="IfJ1QCMbeDYxTQooLl67-22" value="Alterar Produto&lt;br&gt;ou serviço" style="ellipse;whiteSpace=wrap;html=1;shadow=1;" parent="1" vertex="1">
          <mxGeometry x="550" y="340" width="96" height="70" as="geometry" />
        </mxCell>
        <mxCell id="IfJ1QCMbeDYxTQooLl67-23" value="Excluir Produto&lt;br&gt;ou serviço" style="ellipse;whiteSpace=wrap;html=1;shadow=1;" parent="1" vertex="1">
          <mxGeometry x="560" y="445" width="140" height="70" as="geometry" />
        </mxCell>
        <mxCell id="IfJ1QCMbeDYxTQooLl67-24" value="" style="edgeStyle=none;html=1;endArrow=block;endFill=0;endSize=12;verticalAlign=bottom;rounded=0;entryX=0;entryY=0.714;entryDx=0;entryDy=0;entryPerimeter=0;" parent="1" source="IfJ1QCMbeDYxTQooLl67-29" target="IfJ1QCMbeDYxTQooLl67-22" edge="1">
          <mxGeometry width="160" relative="1" as="geometry">
            <mxPoint x="350" y="450" as="sourcePoint" />
            <mxPoint x="300" y="484.5" as="targetPoint" />
          </mxGeometry>
        </mxCell>
        <mxCell id="IfJ1QCMbeDYxTQooLl67-25" value="" style="edgeStyle=none;html=1;endArrow=block;endFill=0;endSize=12;verticalAlign=bottom;rounded=0;" parent="1" source="IfJ1QCMbeDYxTQooLl67-29" target="IfJ1QCMbeDYxTQooLl67-23" edge="1">
          <mxGeometry width="160" relative="1" as="geometry">
            <mxPoint x="360" y="500" as="sourcePoint" />
            <mxPoint x="370" y="515" as="targetPoint" />
          </mxGeometry>
        </mxCell>
        <mxCell id="IfJ1QCMbeDYxTQooLl67-29" value="Logar" style="ellipse;whiteSpace=wrap;html=1;shadow=1;" parent="1" vertex="1">
          <mxGeometry x="200" y="470" width="96" height="70" as="geometry" />
        </mxCell>
        <mxCell id="IfJ1QCMbeDYxTQooLl67-30" value="&amp;lt;&amp;lt;include&amp;gt;&amp;gt;" style="edgeStyle=none;html=1;endArrow=open;verticalAlign=bottom;dashed=1;labelBackgroundColor=none;rounded=0;exitX=0.5;exitY=0.5;exitDx=0;exitDy=0;exitPerimeter=0;entryX=0;entryY=0.5;entryDx=0;entryDy=0;" parent="1" source="IfJ1QCMbeDYxTQooLl67-20" target="IfJ1QCMbeDYxTQooLl67-29" edge="1">
          <mxGeometry x="0.1908" y="2" width="160" relative="1" as="geometry">
            <mxPoint x="140" y="705" as="sourcePoint" />
            <mxPoint x="300" y="705" as="targetPoint" />
            <mxPoint y="1" as="offset" />
          </mxGeometry>
        </mxCell>
        <mxCell id="8verdPe4uETtDoV4nq2R-1" value="Excluir Produto&lt;br&gt;ou serviço" style="ellipse;whiteSpace=wrap;html=1;shadow=1;" vertex="1" parent="1">
          <mxGeometry x="570" y="540" width="140" height="70" as="geometry" />
        </mxCell>
        <mxCell id="8verdPe4uETtDoV4nq2R-2" value="" style="edgeStyle=none;html=1;endArrow=block;endFill=0;endSize=12;verticalAlign=bottom;rounded=0;entryX=0.052;entryY=0.319;entryDx=0;entryDy=0;entryPerimeter=0;exitX=1;exitY=1;exitDx=0;exitDy=0;" edge="1" parent="1" source="IfJ1QCMbeDYxTQooLl67-29" target="8verdPe4uETtDoV4nq2R-1">
          <mxGeometry width="160" relative="1" as="geometry">
            <mxPoint x="210" y="681" as="sourcePoint" />
            <mxPoint x="504" y="670" as="targetPoint" />
          </mxGeometry>
        </mxCell>
        <mxCell id="8verdPe4uETtDoV4nq2R-3" value="Solicitar&amp;nbsp;&amp;nbsp;&lt;br&gt;Produto &lt;br&gt;ou &lt;br&gt;serviço" style="ellipse;whiteSpace=wrap;html=1;shadow=1;" vertex="1" parent="1">
          <mxGeometry x="400" y="620" width="140" height="70" as="geometry" />
        </mxCell>
        <mxCell id="8verdPe4uETtDoV4nq2R-4" value="" style="edgeStyle=none;html=1;endArrow=block;endFill=0;endSize=12;verticalAlign=bottom;rounded=0;entryX=0.252;entryY=0.103;entryDx=0;entryDy=0;entryPerimeter=0;exitX=0.715;exitY=0.957;exitDx=0;exitDy=0;exitPerimeter=0;" edge="1" parent="1" source="IfJ1QCMbeDYxTQooLl67-29" target="8verdPe4uETtDoV4nq2R-3">
          <mxGeometry width="160" relative="1" as="geometry">
            <mxPoint x="190" y="550" as="sourcePoint" />
            <mxPoint x="453" y="652" as="targetPoint" />
          </mxGeometry>
        </mxCell>
      </root>
    </mxGraphModel>
  </diagram>
</mxfile>
